<?xml version="1.0" encoding="utf-8"?>
<!-- Generator: Adobe Illustrator 21.1.0, SVG Export Plug-In . SVG Version: 6.00 Build 0)  -->
<svg version="1.1" id="Layer_1" xmlns="http://www.w3.org/2000/svg" xmlns:xlink="http://www.w3.org/1999/xlink" x="0px" y="0px"
	 viewBox="0 0 304 276.3" style="enable-background:new 0 0 304 276.3;" xml:space="preserve">
<style type="text/css">
	.st0{fill:url(#SVGID_1_);}
	.st1{fill:url(#SVGID_2_);}
	.st2{fill:url(#SVGID_3_);}
	.st3{fill:url(#SVGID_4_);}
	.st4{fill:url(#SVGID_5_);}
	.st5{fill:#593084;}
	.st6{fill:url(#SVGID_6_);}
	.st7{fill:#FFFFFF;}
	.st8{fill:url(#SVGID_7_);}
	.st9{fill:url(#SVGID_8_);}
	.st10{fill:url(#SVGID_9_);}
	.st11{fill:url(#SVGID_10_);}
	.st12{fill:url(#SVGID_11_);}
	.st13{fill:url(#SVGID_12_);}
	.st14{fill:url(#SVGID_13_);}
	.st15{fill:url(#SVGID_14_);}
</style>
<g>
	<g>
		<linearGradient id="SVGID_1_" gradientUnits="userSpaceOnUse" x1="218.5843" y1="253.5131" x2="85.3946" y2="22.8218">
			<stop  offset="1.070053e-02" style="stop-color:#FFFFC7"/>
			<stop  offset="0.2086" style="stop-color:#FFE600"/>
			<stop  offset="0.4619" style="stop-color:#F1BE10"/>
			<stop  offset="0.6824" style="stop-color:#FFF46E"/>
			<stop  offset="1" style="stop-color:#F7D009"/>
		</linearGradient>
		<circle class="st0" cx="152" cy="138.2" r="133.2"/>
		<linearGradient id="SVGID_2_" gradientUnits="userSpaceOnUse" x1="249.6426" y1="40.5139" x2="54.3356" y2="235.821">
			<stop  offset="1.070053e-02" style="stop-color:#FFFFC7"/>
			<stop  offset="0.2086" style="stop-color:#FFE600"/>
			<stop  offset="0.4619" style="stop-color:#F1BE10"/>
			<stop  offset="0.6824" style="stop-color:#FFF46E"/>
			<stop  offset="1" style="stop-color:#F7D009"/>
		</linearGradient>
		<path class="st1" d="M152,276.3c-76.2,0-138.2-62-138.2-138.2S75.8,0,152,0c76.2,0,138.2,62,138.2,138.2S228.2,276.3,152,276.3z
			 M152,10C81.3,10,23.8,67.5,23.8,138.2S81.3,266.3,152,266.3s128.2-57.5,128.2-128.2S222.7,10,152,10z"/>
	</g>
	<g>
		<linearGradient id="SVGID_3_" gradientUnits="userSpaceOnUse" x1="250.9851" y1="81.0123" x2="52.9938" y2="195.3226">
			<stop  offset="1.070053e-02" style="stop-color:#FFFFC7"/>
			<stop  offset="0.2086" style="stop-color:#FFE600"/>
			<stop  offset="0.4619" style="stop-color:#F1BE10"/>
			<stop  offset="0.6824" style="stop-color:#FFF46E"/>
			<stop  offset="1" style="stop-color:#F7D009"/>
		</linearGradient>
		<circle class="st2" cx="152" cy="138.2" r="114.3"/>
		<linearGradient id="SVGID_4_" gradientUnits="userSpaceOnUse" x1="32.6985" y1="138.1674" x2="271.2805" y2="138.1674">
			<stop  offset="1.070053e-02" style="stop-color:#FFFFC7"/>
			<stop  offset="0.2086" style="stop-color:#FFE600"/>
			<stop  offset="0.4619" style="stop-color:#F1BE10"/>
			<stop  offset="0.6824" style="stop-color:#FFF46E"/>
			<stop  offset="1" style="stop-color:#F7D009"/>
		</linearGradient>
		<path class="st3" d="M152,257.5c-65.8,0-119.3-53.5-119.3-119.3S86.2,18.9,152,18.9s119.3,53.5,119.3,119.3S217.8,257.5,152,257.5
			z M152,28.9c-60.3,0-109.3,49-109.3,109.3s49,109.3,109.3,109.3s109.3-49,109.3-109.3S212.3,28.9,152,28.9z"/>
	</g>
	<linearGradient id="SVGID_5_" gradientUnits="userSpaceOnUse" x1="32.6985" y1="138.1674" x2="271.2805" y2="138.1674">
		<stop  offset="1.070053e-02" style="stop-color:#FFFFC7"/>
		<stop  offset="0.2086" style="stop-color:#FFE600"/>
		<stop  offset="0.4619" style="stop-color:#F1BE10"/>
		<stop  offset="0.6824" style="stop-color:#FFF46E"/>
		<stop  offset="1" style="stop-color:#F7D009"/>
	</linearGradient>
	<path class="st4" d="M152,257.5c-65.8,0-119.3-53.5-119.3-119.3S86.2,18.9,152,18.9s119.3,53.5,119.3,119.3S217.8,257.5,152,257.5z
		 M152,28.9c-60.3,0-109.3,49-109.3,109.3s49,109.3,109.3,109.3s109.3-49,109.3-109.3S212.3,28.9,152,28.9z"/>
	<g>
		<g>
			<g>
				<g>
					<path class="st5" d="M128.7,56.7c1.9,0.5,3.1,1.5,3.8,3.1c1,3.3-0.2,5.6-3.4,7l-9.7,3.4l-6-17.3l9.2-3.2c3-0.8,5.1,0.3,6.4,3.5
						C129.4,54.7,129.3,55.9,128.7,56.7z M119.2,58.6l4.8-1.7c1.4-0.5,1.8-1.5,1.4-2.9c-0.3-0.8-1.2-1-2.6-0.6l-4.9,1.7L119.2,58.6z
						 M121.9,66.3l5.6-2c1.6-0.6,2.2-1.7,1.6-3.4c-0.4-1.1-1.4-1.4-3.1-0.9l-5.7,2L121.9,66.3z"/>
				</g>
				<g>
					<path class="st5" d="M136.9,64.4l-2-18.2l13.4-1.5l0.4,3.4l-9.7,1.1l0.4,3.9l7.3-0.8l0.4,3.4l-7.3,0.8l0.4,4.1l9.7-1.1l0.4,3.4
						L136.9,64.4z"/>
				</g>
				<g>
					<path class="st5" d="M164.7,46.3c0.9,0.5,1.7,1.2,2.4,2.1l-2.7,2.2c-0.7-1.1-1.8-1.7-3.3-1.8c-1.5-0.1-2.4,0.1-2.9,0.8
						c-0.5,0.6-0.5,1.2-0.2,1.8c0.4,0.5,1.3,1,2.7,1.4c1.5,0.3,2.9,1,4,1.9c1.2,1,1.7,2.4,1.5,4.3c-0.1,1.5-0.9,2.6-2.4,3.6
						c-1.4,0.9-3.1,1.3-4.8,1.1c-1.7-0.2-3.1-0.6-4.2-1.2c-1.1-0.6-2-1.3-2.7-2.2l2.7-2.2c0.7,1.1,2,1.8,4,2.1
						c1.6,0.2,2.7-0.1,3.1-0.7s0.5-1.3,0.2-2.1c-0.3-0.7-1.3-1.3-2.9-1.6c-1.4-0.3-2.7-0.9-3.9-1.7c-1.1-0.9-1.6-2.2-1.4-3.9
						c0.2-1.6,1-2.8,2.5-3.7c1.5-0.8,2.9-1.2,4.4-1C162.5,45.5,163.8,45.8,164.7,46.3z"/>
				</g>
				<g>
					<path class="st5" d="M188,51.8l-1.1,3.3l-5.8-1.9l-4.6,14.2l-3.5-1.1l4.6-14.2l-5.8-1.9l1.1-3.3L188,51.8z"/>
				</g>
			</g>
		</g>
		<g>
			<g>
				<g>
					<path class="st5" d="M74.5,198.3c0.2-2.5,1.2-4.6,3.2-6.3c1.9-1.7,4.1-2.5,6.6-2.3c2.5,0.2,4.6,1.2,6.3,3.1
						c1.7,2,2.6,4.2,2.6,6.7l-3.6-0.1c-0.1-1.6-0.7-3-1.7-4.2c-1.1-1.2-2.4-1.9-3.8-2c-1.4-0.1-2.7,0.4-3.9,1.4
						c-1.3,1.1-2,2.4-2,3.8c-0.1,1.4,0.4,2.7,1.5,4c0.9,1,1.7,1.6,2.6,1.8l2.4-2.1l-1.6-1.8l2.6-2.3l4,4.6l-6.4,5.6
						c-2.5-0.3-4.5-1.5-6.3-3.4C75.1,203,74.4,200.7,74.5,198.3z"/>
				</g>
				<g>
					<path class="st5" d="M99.3,201.5L93,210c-0.8,1.1-1.1,2.2-0.8,3.2s0.9,1.9,1.9,2.6c1,0.7,2,1.1,3,1c1,0,2-0.6,2.8-1.7l6.3-8.5
						l2.9,2.2l-6.9,9.3c-1.1,1.5-2.7,2.3-4.6,2.5c-2,0.2-3.9-0.4-5.7-1.8c-1.8-1.4-3-3-3.4-4.9s-0.1-3.7,1-5.2l6.9-9.3L99.3,201.5z"
						/>
				</g>
				<g>
					<path class="st5" d="M102.9,226.4l14-13.8l3.4,1.5l-0.6,19.7l-3.6-1.5l0.1-3l-7.6-3.3l-2.1,2.1L102.9,226.4z M116.8,217.8
						l-5.3,5.3l5,2.2L116.8,217.8z"/>
				</g>
				<g>
					<path class="st5" d="M137.1,229.6l2.9,8.7l-4.1-0.8l-2.8-8.3l-3.3-0.7l-1.5,7.4l-3.6-0.7l3.7-17.9l7.8,1.6
						c4.2,0.9,5.9,3,5.2,6.5C140.9,227.9,139.4,229.3,137.1,229.6z M130.5,225.1l5,1c1.4,0.3,2.3-0.2,2.6-1.5c0.2-1.2-0.4-2-1.8-2.3
						l-5.1-1L130.5,225.1z"/>
				</g>
				<g>
					<path class="st5" d="M143.2,238.8l7.2-18.4l3.7,0l7.4,18.3l-3.9,0l-1.1-2.8l-8.3,0.1l-1.1,2.8L143.2,238.8z M152.4,225.3
						l-2.7,7l5.5,0L152.4,225.3z"/>
				</g>
				<g>
					<path class="st5" d="M166.8,238l-4.2-17.8l1.2-0.3l13.8,8.5l-2.7-11.2l3.6-0.8l4.2,17.8l-1.3,0.3l-13.7-8.4l2.6,11L166.8,238z"
						/>
				</g>
				<g>
					<path class="st5" d="M194.2,209.1l1.5,3.1l-5.5,2.6l6.4,13.4l-3.3,1.6l-6.4-13.4l-5.5,2.6l-1.5-3.1L194.2,209.1z"/>
				</g>
				<g>
					<path class="st5" d="M206.2,223.1l-10.9-14.7l10.8-8l2,2.7l-7.9,5.8l2.3,3.1l5.9-4.4l2,2.7l-5.9,4.4l2.5,3.3l7.8-5.8l2,2.7
						L206.2,223.1z"/>
				</g>
				<g>
					<path class="st5" d="M221.4,211.2l-13.5-12.4l9.1-9.9l2.5,2.3l-6.6,7.2l2.9,2.6l5-5.4l2.5,2.3l-5,5.4l3.1,2.8l6.6-7.2l2.5,2.3
						L221.4,211.2z"/>
				</g>
			</g>
		</g>
	</g>
	<g>
		<rect x="5" y="106.6" class="st5" width="294" height="63.2"/>
		<linearGradient id="SVGID_6_" gradientUnits="userSpaceOnUse" x1="151.9895" y1="174.7651" x2="151.9895" y2="101.5698">
			<stop  offset="1.070053e-02" style="stop-color:#FFFFC7"/>
			<stop  offset="0.2086" style="stop-color:#FFE600"/>
			<stop  offset="0.4619" style="stop-color:#F1BE10"/>
			<stop  offset="0.6824" style="stop-color:#FFF46E"/>
			<stop  offset="1" style="stop-color:#F7D009"/>
		</linearGradient>
		<path class="st6" d="M304,174.8H0v-73.2h304V174.8z M10,164.8h284v-53.2H10V164.8z"/>
	</g>
	<g>
		<g>
			<path class="st5" d="M162,190.7l-1.8,2.3l-0.6,3.1c-0.7,3.6-2.9,6.8-6.2,9.1l-1.4,1l-1.6-1.1c-3.4-2.4-5.6-5.7-6.2-9.3l-0.5-2.8
				l0.2-0.1c2.9-0.8,5.6-2.1,7.7-4c1.9,1.6,4.3,2.9,6.9,3.6l1.3-2.4c-2.9-0.7-5.4-2.1-7.4-4l-0.8-0.8l-1.2,1.1
				c-1.9,1.8-4.4,3.1-7.1,3.8l-2.5,0.6l0.9,5.2c0.7,4.4,3.3,8.4,7.3,11.1l2.9,2l2.8-1.9c3.9-2.7,6.5-6.5,7.3-10.8l1.1-5.7L162,190.7
				z"/>
		</g>
		<g>
			<path class="st5" d="M151.9,201.4C151.9,201.4,151.9,201.4,151.9,201.4c-0.6,0-1.2-0.3-1.5-0.9l-2.7-4.4l2.1-1.5l2.2,3.6
				l7.2-11.2l2,1.5l-7.8,12.1C153.1,201.1,152.5,201.4,151.9,201.4z"/>
		</g>
	</g>
	<g>
		<g>
			<path class="st7" d="M23.9,155.3v-33.1h14.4c7.7,0,11.6,3.2,11.6,9.5c0,6.6-3.9,9.9-11.6,9.9h-7.8v13.7H23.9z M30.5,135.5h9.3
				c2.7,0,4-1.3,4.1-3.6c-0.1-2.2-1.4-3.3-4-3.4h-9.3V135.5z"/>
			<linearGradient id="SVGID_7_" gradientUnits="userSpaceOnUse" x1="23.8889" y1="138.781" x2="49.8987" y2="138.781">
				<stop  offset="1.070053e-02" style="stop-color:#FFFFC7"/>
				<stop  offset="0.2086" style="stop-color:#FFE600"/>
				<stop  offset="0.4619" style="stop-color:#F1BE10"/>
				<stop  offset="0.6824" style="stop-color:#FFF46E"/>
				<stop  offset="1" style="stop-color:#F7D009"/>
			</linearGradient>
			<path class="st8" d="M38.3,123.2c7.2,0,10.6,2.7,10.6,8.5c0,6.1-3.4,8.9-10.6,8.9h-7.8h-1v1v12.7h-4.6v-31.1H38.3 M29.5,136.5h1
				l9.3,0c3.2-0.1,5-1.7,5.1-4.6l0,0l0,0c-0.1-1.6-0.8-4.2-5-4.4h-9.3h-1v1v7V136.5 M38.3,122.2H23.9v33.1h6.6v-13.7h7.8
				c7.7,0,11.6-3.3,11.6-9.9C49.9,125.4,46,122.2,38.3,122.2L38.3,122.2z M30.5,135.5v-7h9.3c2.6,0.1,4,1.2,4,3.4
				c-0.1,2.4-1.4,3.6-4.1,3.6H30.5L30.5,135.5z"/>
		</g>
		<g>
			<path class="st7" d="M60.9,122.2v19.2c0,2.5,0.7,4.3,2.2,5.5c1.5,1.2,3.3,1.8,5.5,1.8s4-0.6,5.5-1.8c1.5-1.2,2.2-3,2.2-5.5v-19.2
				h6.6v21c0,3.4-1.4,6.3-4.1,8.6c-2.7,2.4-6.1,3.5-10.3,3.5c-4.1,0-7.5-1.2-10.3-3.5c-2.7-2.4-4.1-5.2-4.1-8.6v-21H60.9z"/>
			<linearGradient id="SVGID_8_" gradientUnits="userSpaceOnUse" x1="54.2669" y1="138.781" x2="82.9465" y2="138.781">
				<stop  offset="1.070053e-02" style="stop-color:#FFFFC7"/>
				<stop  offset="0.2086" style="stop-color:#FFE600"/>
				<stop  offset="0.4619" style="stop-color:#F1BE10"/>
				<stop  offset="0.6824" style="stop-color:#FFF46E"/>
				<stop  offset="1" style="stop-color:#F7D009"/>
			</linearGradient>
			<path class="st9" d="M81.9,123.2v20c0,3.1-1.2,5.7-3.7,7.8c-2.5,2.2-5.8,3.3-9.6,3.3c-3.9,0-7.1-1.1-9.6-3.3
				c-2.5-2.2-3.7-4.7-3.7-7.8v-20h4.6v18.2c0,2.8,0.9,4.9,2.6,6.3c1.6,1.3,3.7,2,6.1,2c2.4,0,4.5-0.7,6.1-2c1.7-1.4,2.6-3.5,2.6-6.3
				v-18.2H81.9 M82.9,122.2h-6.6v19.2c0,2.5-0.7,4.3-2.2,5.5c-1.5,1.2-3.3,1.8-5.5,1.8s-4-0.6-5.5-1.8c-1.5-1.2-2.2-3-2.2-5.5v-19.2
				h-6.6v21c0,3.4,1.4,6.3,4.1,8.6c2.7,2.4,6.1,3.5,10.3,3.5c4.1,0,7.5-1.2,10.3-3.5c2.7-2.4,4.1-5.2,4.1-8.6V122.2L82.9,122.2z"/>
		</g>
		<g>
			<path class="st7" d="M110,140.9l8.3,14.4h-7.6l-7.9-13.7h-6v13.7h-6.6v-33.1h14.4c7.7,0,11.6,3.2,11.6,9.5
				C116.1,136.5,114.1,139.6,110,140.9z M96.7,135.5h9.3c2.7,0,4-1.3,4.1-3.6c-0.1-2.2-1.4-3.3-4-3.4h-9.3V135.5z"/>
			<linearGradient id="SVGID_9_" gradientUnits="userSpaceOnUse" x1="90.094" y1="138.781" x2="118.2659" y2="138.781">
				<stop  offset="1.070053e-02" style="stop-color:#FFFFC7"/>
				<stop  offset="0.2086" style="stop-color:#FFE600"/>
				<stop  offset="0.4619" style="stop-color:#F1BE10"/>
				<stop  offset="0.6824" style="stop-color:#FFF46E"/>
				<stop  offset="1" style="stop-color:#F7D009"/>
			</linearGradient>
			<path class="st10" d="M104.5,123.2c7.2,0,10.6,2.7,10.6,8.5c0,4.3-1.8,7-5.4,8.2l-1.2,0.4l0.6,1.1l7.4,12.9h-5.3l-7.6-13.2
				l-0.3-0.5h-0.6h-6h-1v1v12.7h-4.6v-31.1H104.5 M95.7,136.5h1l9.3,0c3.2-0.1,5-1.7,5.1-4.6l0,0l0,0c-0.1-1.6-0.8-4.2-5-4.4h-9.3
				h-1v1v7V136.5 M104.5,122.2H90.1v33.1h6.6v-13.7h6l7.9,13.7h7.6l-8.3-14.4c4.1-1.3,6.1-4.4,6.1-9.1
				C116.1,125.4,112.2,122.2,104.5,122.2L104.5,122.2z M96.7,135.5v-7h9.3c2.6,0.1,4,1.2,4,3.4c-0.1,2.4-1.4,3.6-4.1,3.6H96.7
				L96.7,135.5z"/>
		</g>
		<g>
			<path class="st7" d="M124.8,150.6c-3.2-3.2-4.8-7.1-4.8-11.9c0-4.6,1.6-8.6,4.8-11.7c3.2-3.2,7.1-4.8,11.8-4.8
				c4.7,0,8.8,1.5,12.2,4.4l-4.4,4.8c-2.2-1.8-4.8-2.6-7.7-2.6c-3,0-5.4,0.9-7.2,2.8s-2.7,4.2-2.7,7.1c0,3.1,0.9,5.5,2.8,7.3
				c1.8,1.8,4.2,2.7,7.2,2.7s5.5-0.9,7.7-2.6l4.4,4.8c-3.4,2.9-7.4,4.4-12.2,4.4C131.9,155.3,128,153.7,124.8,150.6z"/>
			<linearGradient id="SVGID_10_" gradientUnits="userSpaceOnUse" x1="120.0745" y1="138.781" x2="148.7532" y2="138.781">
				<stop  offset="1.070053e-02" style="stop-color:#FFFFC7"/>
				<stop  offset="0.2086" style="stop-color:#FFE600"/>
				<stop  offset="0.4619" style="stop-color:#F1BE10"/>
				<stop  offset="0.6824" style="stop-color:#FFF46E"/>
				<stop  offset="1" style="stop-color:#F7D009"/>
			</linearGradient>
			<path class="st11" d="M136.6,123.2c4.1,0,7.7,1.2,10.7,3.5l-3.1,3.4c-2.2-1.5-4.8-2.3-7.6-2.3c-3.2,0-5.9,1.1-7.9,3.1
				c-2,2-3,4.6-3,7.8c0,3.3,1,6,3.1,8c2,2,4.7,3,7.9,3c2.9,0,5.4-0.8,7.6-2.3l3.1,3.4c-3,2.3-6.6,3.5-10.7,3.5
				c-4.4,0-8.1-1.5-11.1-4.5c-3-3-4.5-6.6-4.5-11.1c0-4.4,1.5-8,4.5-11C128.5,124.7,132.2,123.2,136.6,123.2 M136.6,122.2
				c-4.7,0-8.6,1.6-11.8,4.8c-3.2,3.2-4.8,7.1-4.8,11.7c0,4.8,1.6,8.7,4.8,11.9c3.2,3.2,7.1,4.7,11.8,4.8c4.7,0,8.8-1.5,12.2-4.4
				l-4.4-4.8c-2.2,1.8-4.7,2.6-7.7,2.6s-5.4-0.9-7.2-2.7c-1.8-1.8-2.7-4.3-2.8-7.3c0-2.9,0.9-5.2,2.7-7.1s4.2-2.8,7.2-2.8
				c2.9,0,5.5,0.9,7.7,2.6l4.4-4.8C145.4,123.7,141.3,122.2,136.6,122.2L136.6,122.2z"/>
		</g>
		<g>
			<path class="st7" d="M155.9,155.3v-33.1h6.6v13.2h15.4v-13.3h6.6v33.1l-6.6,0v-13.7h-15.4v13.7H155.9z"/>
			<linearGradient id="SVGID_11_" gradientUnits="userSpaceOnUse" x1="155.8792" y1="138.77" x2="184.5364" y2="138.77">
				<stop  offset="1.070053e-02" style="stop-color:#FFFFC7"/>
				<stop  offset="0.2086" style="stop-color:#FFE600"/>
				<stop  offset="0.4619" style="stop-color:#F1BE10"/>
				<stop  offset="0.6824" style="stop-color:#FFF46E"/>
				<stop  offset="1" style="stop-color:#F7D009"/>
			</linearGradient>
			<path class="st12" d="M183.5,123.2v31.1l-4.6,0v-12.7v-1h-1h-15.4h-1v1v12.7h-4.6v-31.1h4.6v12.2v1h1h15.4h1v-1v-12.3H183.5
				 M184.5,122.2h-6.6v13.3h-15.4v-13.2h-6.6v33.1h6.6v-13.7h15.4v13.7l6.6,0V122.2L184.5,122.2z"/>
		</g>
		<g>
			<path class="st7" d="M189.9,155.3l13.2-33.1h6.6l13.2,33.1l-7,0l-2-5.1h-15l-2,5.1H189.9z M206.7,131.1l-5,12.6h9.9L206.7,131.1z
				"/>
			<linearGradient id="SVGID_12_" gradientUnits="userSpaceOnUse" x1="189.9417" y1="138.781" x2="223.011" y2="138.781">
				<stop  offset="1.070053e-02" style="stop-color:#FFFFC7"/>
				<stop  offset="0.2086" style="stop-color:#FFE600"/>
				<stop  offset="0.4619" style="stop-color:#F1BE10"/>
				<stop  offset="0.6824" style="stop-color:#FFF46E"/>
				<stop  offset="1" style="stop-color:#F7D009"/>
			</linearGradient>
			<path class="st13" d="M209.1,123.2l12.4,31.1l-4.9,0l-1.7-4.4l-0.2-0.6H214h-15h-0.7l-0.2,0.6l-1.7,4.4h-4.9l12.4-31.1H209.1
				 M200.2,144.6h1.5h9.9h1.5l-0.5-1.4l-4.9-12.6l-0.9-2.4l-0.9,2.4l-5,12.6L200.2,144.6 M209.8,122.2h-6.6l-13.2,33.1h7.1l2-5.1h15
				l2,5.1l7,0L209.8,122.2L209.8,122.2z M201.6,143.6l5-12.6l4.9,12.6H201.6L201.6,143.6z"/>
		</g>
		<g>
			<path class="st7" d="M245.9,123.3c1.7,0.7,3.3,1.8,4.7,3.3l-4.4,4.4c-1.5-1.8-3.5-2.6-6.2-2.6c-2.6,0-4.3,0.6-5.1,1.9
				s-0.7,2.3,0,3.2s2.4,1.5,5.1,2c2.8,0.3,5.3,1.2,7.6,2.8s3.4,4,3.4,7.4c0,2.6-1.2,4.9-3.7,6.8c-2.4,1.9-5.3,2.9-8.5,2.9
				c-3.1,0-5.6-0.4-7.7-1.3c-2.1-0.9-3.8-2.1-5.3-3.5l4.4-4.4c1.5,1.8,4,2.8,7.5,3.1c2.9,0,4.8-0.6,5.5-1.9c0.7-1.2,0.7-2.5,0-3.8
				c-0.7-1.2-2.6-2-5.5-2.3c-2.6-0.3-5.1-1.1-7.3-2.4c-2.2-1.3-3.3-3.6-3.3-6.8c0-2.9,1.3-5.3,3.8-7c2.5-1.8,5.1-2.7,7.7-2.7
				C241.8,122.2,244.2,122.6,245.9,123.3z"/>
			<linearGradient id="SVGID_13_" gradientUnits="userSpaceOnUse" x1="225.9007" y1="138.781" x2="251.0501" y2="138.781">
				<stop  offset="1.070053e-02" style="stop-color:#FFFFC7"/>
				<stop  offset="0.2086" style="stop-color:#FFE600"/>
				<stop  offset="0.4619" style="stop-color:#F1BE10"/>
				<stop  offset="0.6824" style="stop-color:#FFF46E"/>
				<stop  offset="1" style="stop-color:#F7D009"/>
			</linearGradient>
			<path class="st14" d="M238.7,123.2c2.9,0,5.2,0.3,6.7,1c1.3,0.6,2.5,1.4,3.7,2.4l-3,3c-1.6-1.5-3.7-2.2-6.2-2.2
				c-3,0-5,0.8-5.9,2.4c-1.2,2.1-0.6,3.5,0.1,4.3c0.9,1.1,2.8,1.8,5.7,2.3l0,0l0,0c2.6,0.3,5,1.1,7.2,2.6c2,1.4,3,3.5,3,6.6
				c0,2.3-1.1,4.3-3.3,6.1c-2.2,1.8-4.9,2.7-7.9,2.7c-2.9,0-5.4-0.4-7.3-1.2c-1.6-0.7-3-1.6-4.2-2.6l3-3c1.7,1.5,4.2,2.4,7.4,2.7
				l0,0h0c3.4,0,5.4-0.8,6.4-2.4c0.9-1.6,0.9-3.2,0-4.8c-0.9-1.6-3-2.5-6.3-2.8c-2.5-0.3-4.8-1-6.9-2.3c-1.9-1.1-2.8-3.1-2.8-6
				c0-2.6,1.1-4.6,3.3-6.2C233.9,124.1,236.3,123.2,238.7,123.2 M238.7,122.2c-2.6,0-5.2,0.9-7.7,2.7c-2.5,1.8-3.8,4.1-3.8,7
				c0,3.2,1.1,5.5,3.3,6.8c2.2,1.3,4.6,2.1,7.3,2.4c2.9,0.3,4.8,1.1,5.5,2.3c0.7,1.3,0.7,2.5,0,3.8c-0.7,1.2-2.6,1.9-5.5,1.9
				c-3.5-0.3-6-1.3-7.5-3.1l-4.4,4.4c1.5,1.5,3.2,2.6,5.3,3.5c2.1,0.9,4.6,1.3,7.7,1.3c3.2,0,6.1-1,8.5-2.9c2.4-1.9,3.7-4.2,3.7-6.8
				c0-3.4-1.1-5.8-3.4-7.4s-4.8-2.5-7.6-2.8c-2.6-0.4-4.3-1.1-5.1-2s-0.7-1.9,0-3.2s2.4-1.9,5.1-1.9c2.6,0,4.7,0.9,6.2,2.6l4.4-4.4
				c-1.5-1.5-3.1-2.6-4.7-3.3C244.2,122.6,241.8,122.2,238.7,122.2L238.7,122.2z"/>
		</g>
		<g>
			<path class="st7" d="M256.9,155.3v-33.1l24.3,0v6.2h-17.7v7.1h13.3v6.2h-13.3v7.5h17.6v6.2H256.9z"/>
			<linearGradient id="SVGID_14_" gradientUnits="userSpaceOnUse" x1="256.8743" y1="138.781" x2="281.1858" y2="138.781">
				<stop  offset="1.070053e-02" style="stop-color:#FFFFC7"/>
				<stop  offset="0.2086" style="stop-color:#FFE600"/>
				<stop  offset="0.4619" style="stop-color:#F1BE10"/>
				<stop  offset="0.6824" style="stop-color:#FFF46E"/>
				<stop  offset="1" style="stop-color:#F7D009"/>
			</linearGradient>
			<path class="st15" d="M280.2,123.2v4.2h-16.7h-1v1v7.1v1h1h12.3v4.2h-12.3h-1v1v7.5v1h1h16.6v4.2h-22.3v-31.1L280.2,123.2
				 M281.2,122.2l-24.3,0v33.1h24.3v-6.2h-17.6v-7.5h13.3v-6.2h-13.3v-7.1h17.7V122.2L281.2,122.2z"/>
		</g>
	</g>
</g>
</svg>
